<svg width="28" height="28" viewBox="0 0 28 28" fill="none" xmlns="http://www.w3.org/2000/svg">
<path d="M14.0001 0.666748C6.64008 0.666748 0.666748 6.64008 0.666748 14.0001C0.666748 21.3601 6.64008 27.3334 14.0001 27.3334C21.3601 27.3334 27.3334 21.3601 27.3334 14.0001C27.3334 6.64008 21.3601 0.666748 14.0001 0.666748ZM14.0001 6.00008C16.5734 6.00008 18.6667 8.09341 18.6667 10.6667C18.6667 13.2401 16.5734 15.3334 14.0001 15.3334C11.4267 15.3334 9.33342 13.2401 9.33342 10.6667C9.33342 8.09341 11.4267 6.00008 14.0001 6.00008ZM14.0001 24.6667C11.2934 24.6667 8.09342 23.5734 5.81342 20.8267C8.06675 19.0667 10.9067 18.0001 14.0001 18.0001C17.0934 18.0001 19.9334 19.0667 22.1867 20.8267C19.9067 23.5734 16.7067 24.6667 14.0001 24.6667Z" fill="#6537FF"/>
</svg>
