<svg width="30" height="24" viewBox="0 0 30 24" fill="none" xmlns="http://www.w3.org/2000/svg">
<path d="M26.9999 1.33317C25.5199 0.866504 23.8933 0.666504 22.3333 0.666504C19.7333 0.666504 16.9333 1.19984 14.9999 2.6665C13.0666 1.19984 10.2666 0.666504 7.66658 0.666504C5.06659 0.666504 2.26659 1.19984 0.333252 2.6665V22.1998C0.333252 22.5332 0.666585 22.8665 0.999919 22.8665C1.13325 22.8665 1.19992 22.7998 1.33325 22.7998C3.13325 21.9332 5.73325 21.3332 7.66658 21.3332C10.2666 21.3332 13.0666 21.8665 14.9999 23.3332C16.7999 22.1998 20.0666 21.3332 22.3333 21.3332C24.5333 21.3332 26.7999 21.7332 28.6666 22.7332C28.7999 22.7998 28.8666 22.7998 28.9999 22.7998C29.3333 22.7998 29.6666 22.4665 29.6666 22.1332V2.6665C28.8666 2.0665 27.9999 1.6665 26.9999 1.33317ZM26.9999 19.3332C25.5333 18.8665 23.9333 18.6665 22.3333 18.6665C20.0666 18.6665 16.7999 19.5332 14.9999 20.6665V5.33317C16.7999 4.19984 20.0666 3.33317 22.3333 3.33317C23.9333 3.33317 25.5333 3.53317 26.9999 3.99984V19.3332Z" fill="#6537FF"/>
<path d="M22.3333 8.6665C23.5066 8.6665 24.6399 8.7865 25.6666 9.01317V6.9865C24.6133 6.7865 23.4799 6.6665 22.3333 6.6665C20.0666 6.6665 18.0133 7.05317 16.3333 7.77317V9.9865C17.8399 9.13317 19.9333 8.6665 22.3333 8.6665Z" fill="#6537FF"/>
<path d="M16.3333 11.3198V13.5332C17.8399 12.6798 19.9333 12.2132 22.3333 12.2132C23.5066 12.2132 24.6399 12.3332 25.6666 12.5598V10.5332C24.6133 10.3332 23.4799 10.2132 22.3333 10.2132C20.0666 10.2132 18.0133 10.6132 16.3333 11.3198Z" fill="#6537FF"/>
<path d="M22.3333 13.7732C20.0666 13.7732 18.0133 14.1598 16.3333 14.8798V17.0932C17.8399 16.2398 19.9333 15.7732 22.3333 15.7732C23.5066 15.7732 24.6399 15.8932 25.6666 16.1198V14.0932C24.6133 13.8798 23.4799 13.7732 22.3333 13.7732Z" fill="#6537FF"/>
</svg>
