<svg width="30" height="24" viewBox="0 0 30 24" fill="none" xmlns="http://www.w3.org/2000/svg">
<path d="M22.3333 0.666504C19.7333 0.666504 16.9333 1.19984 14.9999 2.6665C13.0666 1.19984 10.2666 0.666504 7.66658 0.666504C5.06659 0.666504 2.26659 1.19984 0.333252 2.6665V22.1998C0.333252 23.0665 1.30659 22.7998 1.33325 22.7998C3.13325 21.9332 5.73325 21.3332 7.66658 21.3332C10.2666 21.3332 13.0666 21.8665 14.9999 23.3332C16.7999 22.1998 20.0666 21.3332 22.3333 21.3332C24.5333 21.3332 26.7999 21.7332 28.6666 22.7332C29.2133 23.0132 29.6666 22.4798 29.6666 22.1332V2.6665C27.6799 1.17317 24.8266 0.666504 22.3333 0.666504ZM26.9999 19.3332C25.5333 18.8665 23.9333 18.6665 22.3333 18.6665C20.0666 18.6665 16.7999 19.5332 14.9999 20.6665V5.33317C16.7999 4.19984 20.0666 3.33317 22.3333 3.33317C23.9333 3.33317 25.5333 3.53317 26.9999 3.99984V19.3332Z" fill="#6537FF"/>
</svg>
