<svg width="18" height="16" viewBox="0 0 18 16" fill="none" xmlns="http://www.w3.org/2000/svg">
<path d="M5.99995 12L5.17495 15.275C5.12495 15.4917 5.01661 15.6667 4.84995 15.8C4.68328 15.9333 4.48328 16 4.24995 16C3.93328 16 3.67495 15.875 3.47495 15.625C3.27495 15.375 3.21662 15.1 3.29995 14.8L3.99995 12H1.27495C0.941615 12 0.674948 11.8708 0.474948 11.6125C0.274948 11.3542 0.216615 11.0667 0.299948 10.75C0.349948 10.5167 0.466615 10.3333 0.649948 10.2C0.833282 10.0667 1.04162 10 1.27495 10H4.49995L5.49995 6H2.77495C2.44162 6 2.17495 5.87083 1.97495 5.6125C1.77495 5.35417 1.71661 5.06667 1.79995 4.75C1.84995 4.51667 1.96661 4.33333 2.14995 4.2C2.33328 4.06667 2.54162 4 2.77495 4H5.99995L6.82495 0.725C6.87495 0.508333 6.98328 0.333333 7.14995 0.2C7.31661 0.0666667 7.51661 0 7.74995 0C8.06661 0 8.32495 0.125 8.52495 0.375C8.72495 0.625 8.78328 0.9 8.69995 1.2L7.99995 4H11.9999L12.8249 0.725C12.8749 0.508333 12.9833 0.333333 13.1499 0.2C13.3166 0.0666667 13.5166 0 13.7499 0C14.0666 0 14.3249 0.125 14.5249 0.375C14.7249 0.625 14.7833 0.9 14.6999 1.2L13.9999 4H16.7249C17.0583 4 17.3249 4.12917 17.5249 4.3875C17.7249 4.64583 17.7833 4.93333 17.6999 5.25C17.65 5.48333 17.5333 5.66667 17.3499 5.8C17.1666 5.93333 16.9583 6 16.7249 6H13.4999L12.4999 10H15.2249C15.5583 10 15.8249 10.1292 16.0249 10.3875C16.2249 10.6458 16.2833 10.9333 16.1999 11.25C16.1499 11.4833 16.0333 11.6667 15.8499 11.8C15.6666 11.9333 15.4583 12 15.2249 12H11.9999L11.1749 15.275C11.1249 15.4917 11.0166 15.6667 10.8499 15.8C10.6833 15.9333 10.4833 16 10.2499 16C9.93328 16 9.67495 15.875 9.47495 15.625C9.27495 15.375 9.21662 15.1 9.29995 14.8L9.99995 12H5.99995ZM6.49995 10H10.4999L11.4999 6H7.49995L6.49995 10Z" fill="#6537FF"/>
</svg>
